<svg width="900" height="480" viewBox="0 0 900 480" xmlns="http://www.w3.org/2000/svg" font-family="system-ui, -apple-system, sans-serif">
  <rect width="900" height="480" fill="#F1EFE8"/>

  <!-- Background blobs -->
  <ellipse cx="700" cy="150" rx="200" ry="140" fill="#EEEDFE" opacity="0.45"/>
  <ellipse cx="200" cy="360" rx="160" ry="100" fill="#E1F5EE" opacity="0.4"/>

  <!-- Profile card -->
  <rect x="100" y="60" width="380" height="380" rx="24" fill="white" stroke="#D3D1C7" stroke-width="0.5"/>

  <!-- Cover banner -->
  <rect x="100" y="60" width="380" height="90" rx="24" fill="#534AB7"/>
  <rect x="100" y="120" width="380" height="30" fill="#534AB7"/>
  <!-- Banner pattern dots -->
  <circle cx="160" cy="90" r="20" fill="#3C3489" opacity="0.4"/>
  <circle cx="390" cy="80" r="30" fill="#3C3489" opacity="0.3"/>
  <circle cx="440" cy="110" r="15" fill="#26215C" opacity="0.4"/>

  <!-- Avatar -->
  <circle cx="180" cy="148" r="38" fill="white"/>
  <circle cx="180" cy="148" r="32" fill="#EEEDFE"/>
  <text x="180" y="156" text-anchor="middle" font-size="22" font-weight="700" fill="#534AB7">AK</text>
  <!-- Online dot -->
  <circle cx="208" cy="175" r="9" fill="white"/>
  <circle cx="208" cy="175" r="6" fill="#1D9E75"/>

  <!-- Name & title -->
  <text x="136" y="206" font-size="18" font-weight="700" fill="#2C2C2A">Aryan Kulkarni</text>
  <text x="136" y="222" font-size="12" fill="#888780">Senior UI Designer · Bengaluru, India</text>

  <!-- Verified badge -->
  <rect x="136" y="230" width="76" height="20" rx="10" fill="#E1F5EE"/>
  <text x="174" y="244" text-anchor="middle" font-size="10" font-weight="600" fill="#085041">✓ Verified</text>

  <!-- Stats row -->
  <line x1="120" y1="268" x2="460" y2="268" stroke="#D3D1C7" stroke-width="0.5"/>
  <text x="183" y="284" text-anchor="middle" font-size="14" font-weight="700" fill="#534AB7">4.2K</text>
  <text x="183" y="296" text-anchor="middle" font-size="10" fill="#888780">Followers</text>
  <line x1="245" y1="270" x2="245" y2="300" stroke="#D3D1C7" stroke-width="0.5"/>
  <text x="310" y="284" text-anchor="middle" font-size="14" font-weight="700" fill="#534AB7">821</text>
  <text x="310" y="296" text-anchor="middle" font-size="10" fill="#888780">Connections</text>
  <line x1="370" y1="270" x2="370" y2="300" stroke="#D3D1C7" stroke-width="0.5"/>
  <text x="425" y="284" text-anchor="middle" font-size="14" font-weight="700" fill="#534AB7">98</text>
  <text x="425" y="296" text-anchor="middle" font-size="10" fill="#888780">Posts</text>
  <line x1="120" y1="306" x2="460" y2="306" stroke="#D3D1C7" stroke-width="0.5"/>

  <!-- About -->
  <text x="136" y="326" font-size="11" font-weight="600" fill="#2C2C2A">About</text>
  <text x="136" y="341" font-size="11" fill="#888780">Crafting clean digital experiences. 5+ yrs</text>
  <text x="136" y="354" font-size="11" fill="#888780">in product design. Open to opportunities.</text>

  <!-- Skills pills -->
  <rect x="136" y="366" width="52" height="20" rx="10" fill="#EEEDFE"/>
  <text x="162" y="380" text-anchor="middle" font-size="10" font-weight="600" fill="#3C3489">Figma</text>
  <rect x="196" y="366" width="58" height="20" rx="10" fill="#EEEDFE"/>
  <text x="225" y="380" text-anchor="middle" font-size="10" font-weight="600" fill="#3C3489">UI/UX</text>
  <rect x="262" y="366" width="60" height="20" rx="10" fill="#EEEDFE"/>
  <text x="292" y="380" text-anchor="middle" font-size="10" font-weight="600" fill="#3C3489">React</text>

  <!-- Buttons -->
  <rect x="120" y="398" width="150" height="34" rx="10" fill="#534AB7"/>
  <text x="195" y="420" text-anchor="middle" font-size="12" font-weight="600" fill="white">Connect</text>
  <rect x="282" y="398" width="150" height="34" rx="10" fill="white" stroke="#534AB7" stroke-width="1"/>
  <text x="357" y="420" text-anchor="middle" font-size="12" font-weight="600" fill="#534AB7">Message</text>

  <!-- Right side: post grid preview -->
  <rect x="520" y="60" width="280" height="380" rx="24" fill="white" stroke="#D3D1C7" stroke-width="0.5"/>
  <text x="660" y="96" text-anchor="middle" font-size="13" font-weight="600" fill="#2C2C2A">Recent posts</text>
  <line x1="536" y1="108" x2="784" y2="108" stroke="#D3D1C7" stroke-width="0.5"/>

  <!-- Post row 1 -->
  <rect x="536" y="120" width="228" height="72" rx="10" fill="#F1EFE8"/>
  <circle cx="558" cy="148" r="16" fill="#EEEDFE"/>
  <text x="558" y="153" text-anchor="middle" font-size="10" font-weight="600" fill="#534AB7">AK</text>
  <text x="582" y="139" font-size="11" font-weight="600" fill="#2C2C2A">New case study dropped!</text>
  <text x="582" y="152" font-size="10" fill="#888780">Redesigned the Quibe onboarding</text>
  <text x="582" y="165" font-size="10" fill="#888780">flow. Check it out 👇</text>
  <text x="540" y="185" font-size="10" fill="#888780">❤️ 248  💬 42</text>

  <!-- Post row 2 -->
  <rect x="536" y="204" width="228" height="72" rx="10" fill="#F1EFE8"/>
  <circle cx="558" cy="232" r="16" fill="#EEEDFE"/>
  <text x="558" y="237" text-anchor="middle" font-size="10" font-weight="600" fill="#534AB7">AK</text>
  <text x="582" y="223" font-size="11" font-weight="600" fill="#2C2C2A">Hiring: Junior Designer</text>
  <text x="582" y="236" font-size="10" fill="#888780">Looking for a passionate UI</text>
  <text x="582" y="249" font-size="10" fill="#888780">designer. DM me on Quibe!</text>
  <text x="540" y="269" font-size="10" fill="#888780">❤️ 130  💬 27</text>

  <!-- Post row 3 -->
  <rect x="536" y="288" width="228" height="72" rx="10" fill="#F1EFE8"/>
  <circle cx="558" cy="316" r="16" fill="#EEEDFE"/>
  <text x="558" y="321" text-anchor="middle" font-size="10" font-weight="600" fill="#534AB7">AK</text>
  <text x="582" y="307" font-size="11" font-weight="600" fill="#2C2C2A">Design tip of the week</text>
  <text x="582" y="320" font-size="10" fill="#888780">White space is not wasted</text>
  <text x="582" y="333" font-size="10" fill="#888780">space. It's power. 🧠</text>
  <text x="540" y="353" font-size="10" fill="#888780">❤️ 512  💬 88</text>

  <!-- Suggested connections -->
  <line x1="536" y1="374" x2="784" y2="374" stroke="#D3D1C7" stroke-width="0.5"/>
  <text x="660" y="394" text-anchor="middle" font-size="11" fill="#888780">People you may know</text>
  <circle cx="610" cy="418" r="16" fill="#E1F5EE"/>
  <text x="610" y="423" text-anchor="middle" font-size="10" font-weight="600" fill="#1D9E75">SR</text>
  <circle cx="645" cy="418" r="16" fill="#FAEEDA"/>
  <text x="645" y="423" text-anchor="middle" font-size="10" font-weight="600" fill="#BA7517">VP</text>
  <circle cx="680" cy="418" r="16" fill="#FAECE7"/>
  <text x="680" y="423" text-anchor="middle" font-size="10" font-weight="600" fill="#993C1D">MJ</text>
  <rect x="706" y="408" width="68" height="20" rx="10" fill="#534AB7"/>
  <text x="740" y="422" text-anchor="middle" font-size="10" font-weight="600" fill="white">See all →</text>
</svg>
